<?xml version="1.0" encoding="iso-8859-1"?>
<!-- Generator: Adobe Illustrator 19.0.0, SVG Export Plug-In . SVG Version: 6.00 Build 0)  -->
<svg version="1.1" id="Capa_1" xmlns="http://www.w3.org/2000/svg" xmlns:xlink="http://www.w3.org/1999/xlink" x="0px" y="0px"
	 viewBox="0 0 512.001 512.001" style="enable-background:new 0 0 512.001 512.001;" xml:space="preserve">
<path style="fill:#B8860B;" d="M400.147,131.245l87.687,6.388l6.388-87.686l-30.05-2.189l-2.513,34.499
	C413.521,30.176,345.737,0,273.779,0c-141.16,0-256,114.842-256,256s114.842,256,256.001,256
	c85.357,0,164.845-42.459,212.629-113.579l-25.01-16.803c-42.176,62.775-112.314,100.252-187.619,100.252
	c-124.546,0-225.871-101.325-225.871-225.87S149.234,30.13,273.779,30.13c64.05,0,124.351,27.126,166.9,73.858l-38.344-2.793
	L400.147,131.245z"/>
<g>
	<path style="fill:#B8860B;" d="M108.443,308.763c0-31.436,5.948-46.05,30.417-57.095c14.443-6.457,28.548-12.575,28.548-26.847
		c0-9.177-5.778-13.934-14.613-13.934c-10.875,0-21.071,7.137-27.188,13.424l-16.823-18.013
		c7.476-8.496,24.639-19.541,47.749-19.541c26.847,0,41.801,14.443,41.801,37.723c0,19.711-11.045,28.888-26.847,36.874
		c-13.764,6.968-23.45,13.254-23.45,22.94h50.468v24.469L108.443,308.763L108.443,308.763z"/>
	<path style="fill:#B8860B;" d="M258.316,308.593v-25.319h-47.579v-24.299l56.076-71.029h18.691v71.029h14.954v24.299h-14.954
		v25.319H258.316z M237.755,258.974h23.62v-30.247L237.755,258.974z"/>
	<path style="fill:#B8860B;" d="M402.07,308.763h-27.188v-50.128c0-11.555-5.097-16.823-12.914-16.823
		c-6.457,0-15.463,6.288-18.862,15.803v51.147H315.92V184.717h27.188v49.788c6.458-10.536,17.843-16.653,30.927-16.653
		c23.959,0,28.037,18.351,28.037,33.815L402.07,308.763L402.07,308.763z"/>
</g>
<g>
	<path style="fill:#B8860B;" d="M486.408,398.421l-25.01-16.803C419.222,444.392,349.084,481.87,273.779,481.87V512
		C359.137,512,438.625,469.541,486.408,398.421z"/>
	<path style="fill:#B8860B;" d="M400.147,131.245l87.687,6.388l6.388-87.686l-30.05-2.189l-2.513,34.499
		C413.521,30.176,345.737,0,273.779,0v30.13c64.05,0,124.351,27.126,166.9,73.858l-38.344-2.793L400.147,131.245z"/>
</g>
<g>
</g>
<g>
</g>
<g>
</g>
<g>
</g>
<g>
</g>
<g>
</g>
<g>
</g>
<g>
</g>
<g>
</g>
<g>
</g>
<g>
</g>
<g>
</g>
<g>
</g>
<g>
</g>
<g>
</g>
</svg>
